<svg id="eNVCHlgE9Kp1" xmlns="http://www.w3.org/2000/svg" xmlns:xlink="http://www.w3.org/1999/xlink" viewBox="0 0 500 500" shape-rendering="geometricPrecision" text-rendering="geometricPrecision"><g transform="matrix(.707107 0.707107-.707107 0.707107 271.213203-124.766594)"><rect width="100" height="100" rx="0" ry="0" transform="translate(80 350)" fill="#d2dbed" stroke-width="0"/><rect width="100" height="100" rx="0" ry="0" transform="translate(80 230)" fill="#d2dbed" stroke-width="0"/><rect width="100" height="100" rx="0" ry="0" transform="translate(80 110)" fill="#d2dbed" stroke-width="0"/><rect width="100" height="100" rx="0" ry="0" transform="translate(200 110)" fill="#d2dbed" stroke-width="0"/><rect width="100" height="100" rx="0" ry="0" transform="translate(320 110)" fill="#d2dbed" stroke-width="0"/><rect width="100" height="100" rx="0" ry="0" transform="translate(200 230)" fill="#d2dbed" stroke-width="0"/><rect width="100" height="100" rx="0" ry="0" transform="translate(320 230)" fill="#d2dbed" stroke-width="0"/><rect width="100" height="100" rx="0" ry="0" transform="translate(200 350)" fill="#d2dbed" stroke-width="0"/><rect width="100" height="100" rx="0" ry="0" transform="translate(320 350)" fill="#d2dbed" stroke-width="0"/></g></svg>
