<?xml version="1.0" standalone="no"?>
<!DOCTYPE svg PUBLIC "-//W3C//DTD SVG 20010904//EN"
 "http://www.w3.org/TR/2001/REC-SVG-20010904/DTD/svg10.dtd">
<svg version="1.0" xmlns="http://www.w3.org/2000/svg" width="300.000000pt" height="300.000000pt" viewBox="0 0 300.000000 300.000000" preserveAspectRatio="xMidYMid meet">
<g transform="translate(0.000000,300.000000) scale(0.100000,-0.100000)" fill="#000000" stroke="none">
    <path d="M1306 2364 c-343 -68 -731 -336 -1036 -715 -116 -145 -116 -144 -96
-174 44 -67 189 -237 284 -333 276 -276 562 -448 846 -506 98 -21 294 -21 392
0 298 61 577 234 880 545 110 113 264 299 264 319 0 29 -220 283 -366 421
-253 240 -525 394 -788 444 -95 18 -286 18 -380 -1z m359 -240 c217 -56 401
-241 461 -464 22 -86 22 -234 0 -320 -46 -171 -170 -329 -321 -407 -108 -56
-189 -76 -305 -76 -116 0 -197 20 -305 76 -152 79 -277 237 -322 408 -22 85
-21 234 1 319 93 347 442 552 791 464z m-733 -101 c-138 -160 -202 -326 -202
-523 0 -186 64 -358 185 -503 l66 -78 -43 27 c-93 59 -198 144 -307 249 -107
103 -271 289 -271 306 0 15 154 193 242 281 48 48 118 111 155 141 64 52 212
157 220 157 3 0 -18 -26 -45 -57z m1248 -52 c100 -75 285 -254 382 -370 43
-52 78 -97 78 -101 0 -3 -38 -51 -83 -106 -143 -169 -350 -357 -495 -448 l-44
-27 54 63 c138 164 198 322 198 525 0 193 -63 353 -203 517 l-51 58 45 -27
c24 -16 78 -53 119 -84z"/>
    <path d="M1388 1861 c-76 -25 -119 -53 -172 -112 -64 -71 -90 -143 -90 -249 0
-118 27 -185 108 -266 81 -81 148 -108 266 -108 118 0 185 27 266 108 81 81
108 148 108 266 0 118 -27 185 -108 266 -45 44 -77 67 -121 84 -82 31 -183 36
-257 11z"/>
</g>
</svg>
